<?xml version="1.0" encoding="utf-8"?>
<svg width="61" height="60" viewBox="0 0 61 60" fill="none" xmlns="http://www.w3.org/2000/svg">
  <mask id="path-1-outside-1_309_924" maskUnits="userSpaceOnUse" x="-0.186035" y="-0.25" width="61" height="61" fill="black">
    <rect fill="white" x="-0.186" y="-0.25" width="61" height="61"/>
    <path d="M 27.136 0.51 C 20.476 1.37 14.735 4.196 10.144 8.894 C 8.691 10.371 7.912 11.336 6.773 13.068 C 5.146 15.51 3.856 18.441 3.135 21.325 C 2.484 23.918 2.333 25.278 2.345 28.418 C 2.345 30.86 2.612 35.534 2.798 36.558 C 2.856 36.872 2.821 36.93 2.472 37.104 C 1.856 37.395 1.403 37.825 1.124 38.406 C 0.578 39.488 0.578 39.441 2.589 48.384 C 4.658 57.605 4.588 57.407 5.739 58.093 C 6.622 58.628 7.168 58.675 8.644 58.372 C 9.574 58.175 9.876 58.14 9.923 58.256 C 10.027 58.57 10.794 59.291 11.259 59.512 C 11.992 59.872 13.026 59.826 15.118 59.361 C 17.129 58.907 17.396 58.791 18.001 58.128 C 18.582 57.488 18.779 56.977 18.779 56.174 C 18.779 55.314 14.235 34.976 13.898 34.313 C 13.561 33.662 12.794 33.034 12.027 32.813 C 11.457 32.65 11.294 32.65 10.492 32.802 L 9.609 32.964 L 9.504 31.86 C 9.33 29.802 9.4 25.511 9.621 24.325 C 10.76 18.243 14.305 13.173 19.616 9.987 C 23.231 7.824 27.811 6.754 32.041 7.08 C 39.759 7.661 46.419 12.115 49.685 18.883 C 51.394 22.418 51.905 25.348 51.661 30.162 C 51.591 31.627 51.51 32.86 51.487 32.906 C 51.452 32.941 51.033 32.895 50.533 32.802 C 49.72 32.65 49.569 32.65 48.988 32.813 C 48.22 33.034 47.453 33.662 47.116 34.313 C 46.779 34.976 42.235 55.314 42.235 56.174 C 42.235 56.942 42.432 57.465 42.932 58.047 C 43.536 58.721 43.978 58.919 45.884 59.349 C 48.023 59.826 49.022 59.872 49.755 59.512 C 50.22 59.291 50.987 58.57 51.091 58.256 C 51.138 58.14 51.44 58.175 52.37 58.372 C 53.846 58.675 54.392 58.628 55.276 58.093 C 56.415 57.407 56.368 57.581 58.379 48.674 C 60.378 39.802 60.436 39.441 59.902 38.418 C 59.634 37.906 59.111 37.395 58.46 37.023 C 58.286 36.918 58.274 36.79 58.391 35.627 C 58.844 30.906 58.856 25.883 58.402 23.36 C 56.554 12.906 48.837 4.417 38.469 1.417 C 35.947 0.696 34.064 0.429 31.03 0.382 C 29.24 0.359 27.962 0.394 27.136 0.51 Z M 33.959 2.022 C 44.199 3.359 52.672 10.185 55.927 19.697 C 57.31 23.79 57.565 27.301 56.996 34.523 C 56.833 36.604 56.833 36.604 56.345 36.476 C 56.02 36.395 55.961 36.325 55.961 36.034 C 55.961 35.092 54.927 33.86 53.858 33.546 C 53.521 33.441 53.172 33.36 53.091 33.36 C 52.963 33.36 52.939 33.209 52.986 32.685 C 53.149 30.906 53.184 30.22 53.172 28.069 C 53.172 26.581 53.114 25.325 52.998 24.592 C 52.451 21.022 51.033 17.58 48.906 14.696 C 47.872 13.301 45.35 10.813 43.99 9.847 C 40.875 7.638 37.446 6.266 33.727 5.743 C 32.146 5.522 28.996 5.522 27.357 5.754 C 17.896 7.068 10.167 14.22 8.319 23.325 C 7.819 25.767 7.761 27.499 8.04 32.104 C 8.098 33.162 8.086 33.36 7.935 33.36 C 7.842 33.36 7.505 33.441 7.18 33.534 C 6.122 33.848 5.053 35.092 5.053 36.023 C 5.053 36.36 4.89 36.499 4.483 36.499 C 4.309 36.499 4.262 36.36 4.204 35.778 C 3.972 33.453 3.856 30.988 3.844 28.418 C 3.832 25.208 3.96 24.127 4.611 21.557 C 6.773 13.115 13.375 6.068 21.801 3.243 C 23.65 2.626 26.021 2.103 27.834 1.929 C 29.054 1.801 32.715 1.859 33.959 2.022 Z M 11.992 34.406 C 12.201 34.523 12.445 34.744 12.538 34.895 C 12.631 35.046 13.758 39.907 15.06 45.697 L 17.408 56.233 L 17.187 56.674 C 17.071 56.919 16.838 57.221 16.676 57.337 C 16.269 57.628 12.782 58.395 12.282 58.302 C 12.073 58.268 11.736 58.093 11.538 57.907 C 11.132 57.547 11.376 58.558 8.133 43.988 L 6.413 36.29 L 6.633 35.848 C 6.761 35.604 6.982 35.313 7.145 35.197 C 7.435 34.988 10.632 34.197 11.271 34.185 C 11.469 34.174 11.782 34.278 11.992 34.406 Z M 51.754 34.581 C 52.753 34.802 53.707 35.081 53.869 35.197 C 54.032 35.313 54.253 35.604 54.381 35.848 L 54.602 36.29 L 52.893 43.93 C 49.546 58.942 49.883 57.547 49.476 57.907 C 49.278 58.082 48.941 58.268 48.732 58.302 C 48.232 58.395 44.745 57.628 44.338 57.337 C 44.176 57.221 43.943 56.919 43.827 56.674 L 43.606 56.233 L 45.954 45.697 C 47.256 39.907 48.383 35.046 48.476 34.895 C 48.697 34.558 49.313 34.174 49.662 34.174 C 49.813 34.174 50.754 34.36 51.754 34.581 Z M 5.32 38.209 C 5.355 38.395 6.285 42.535 7.377 47.43 C 8.47 52.326 9.377 56.407 9.388 56.5 C 9.411 56.674 8.121 57.058 7.401 57.07 C 6.889 57.081 6.285 56.791 6.041 56.419 C 5.832 56.105 2.263 40.348 2.263 39.744 C 2.263 39.29 2.624 38.686 3.007 38.488 C 3.251 38.348 4.762 37.941 5.123 37.906 C 5.192 37.895 5.285 38.034 5.32 38.209 Z M 56.868 38.127 C 57.403 38.255 57.949 38.441 58.077 38.534 C 58.46 38.79 58.751 39.313 58.751 39.732 C 58.751 40.325 55.183 56.105 54.973 56.419 C 54.729 56.791 54.125 57.081 53.614 57.07 C 52.893 57.058 51.603 56.674 51.626 56.5 C 51.638 56.407 52.544 52.326 53.637 47.43 C 54.729 42.535 55.659 38.395 55.694 38.209 C 55.729 38.034 55.787 37.895 55.834 37.895 C 55.868 37.895 56.345 37.999 56.868 38.127 Z"/>
  </mask>
  <path d="M27.1365 0.509712C20.4765 1.3702 14.7347 4.19587 10.1436 8.8937C8.69076 10.3705 7.91202 11.3356 6.77297 13.0682C5.14575 15.5102 3.85559 18.4405 3.13496 21.3243C2.48408 23.9174 2.33298 25.2779 2.3446 28.4176C2.3446 30.8595 2.61193 35.5341 2.7979 36.5573C2.85601 36.8713 2.82114 36.9294 2.47245 37.1039C1.85643 37.3946 1.40314 37.8248 1.12418 38.4062C0.577901 39.4877 0.577901 39.4412 2.58868 48.3833C4.65758 57.6045 4.58784 57.4068 5.73852 58.0929C6.62187 58.6278 7.16815 58.6743 8.64427 58.372C9.57411 58.1743 9.87631 58.1394 9.9228 58.2557C10.0274 58.5697 10.7945 59.2906 11.2595 59.5115C11.9917 59.872 13.0261 59.8255 15.1183 59.3604C17.1291 58.9069 17.3964 58.7906 18.0008 58.1278C18.5819 57.4882 18.7795 56.9766 18.7795 56.1742C18.7795 55.3137 14.2349 34.9759 13.8979 34.3131C13.5608 33.6619 12.7937 33.034 12.0266 32.813C11.457 32.6502 11.2943 32.6502 10.4923 32.8014L9.60898 32.9642L9.50438 31.8595C9.33003 29.8013 9.39977 25.5105 9.62061 24.3244C10.7597 18.2428 14.3047 13.1729 19.6164 9.98675C23.2312 7.82389 27.8106 6.75409 32.0414 7.07969C39.7591 7.6611 46.4191 12.1147 49.6851 18.8824C51.3937 22.4174 51.9051 25.3477 51.661 30.1618C51.5913 31.627 51.5099 32.8596 51.4867 32.9061C51.4518 32.941 51.0334 32.8944 50.5336 32.8014C49.72 32.6502 49.5689 32.6502 48.9878 32.813C48.2206 33.034 47.4535 33.6619 47.1164 34.3131C46.7794 34.9759 42.2348 55.3137 42.2348 56.1742C42.2348 56.9417 42.4324 57.465 42.9322 58.0464C43.5366 58.7208 43.9782 58.9185 45.8844 59.3487C48.023 59.8255 49.0226 59.872 49.7549 59.5115C50.2198 59.2906 50.9869 58.5697 51.0915 58.2557C51.138 58.1394 51.4402 58.1743 52.37 58.372C53.8462 58.6743 54.3925 58.6278 55.2758 58.0929C56.4149 57.4068 56.3684 57.5812 58.3791 48.674C60.3783 39.8016 60.4364 39.4412 59.9018 38.4179C59.6344 37.9062 59.1114 37.3946 58.4605 37.0225C58.2862 36.9178 58.2745 36.7899 58.3908 35.6271C58.8441 30.906 58.8557 25.8826 58.4024 23.3593C56.5543 12.9054 48.8367 4.41681 38.4689 1.41672C35.9467 0.695763 34.0638 0.428314 31.0302 0.381802C29.2402 0.358543 27.9617 0.393433 27.1365 0.509712ZM33.9592 2.02139C44.1991 3.35864 52.6722 10.1844 55.9267 19.6964C57.3098 23.7895 57.5655 27.3012 56.996 34.5224C56.8333 36.6039 56.8333 36.6039 56.3451 36.4759C56.0197 36.3945 55.9616 36.3248 55.9616 36.0341C55.9616 35.0922 54.9271 33.8596 53.8578 33.5456C53.5207 33.441 53.172 33.3596 53.0907 33.3596C52.9628 33.3596 52.9396 33.2084 52.9861 32.6851C53.1488 30.906 53.1837 30.2199 53.172 28.0687C53.172 26.5803 53.1139 25.3244 52.9977 24.5919C52.4514 21.022 51.0334 17.58 48.9064 14.6962C47.8719 13.3008 45.3497 10.8124 43.9899 9.84721C40.8749 7.63784 37.4461 6.26571 33.7267 5.74244C32.146 5.5215 28.9962 5.5215 27.3573 5.75406C17.8962 7.06806 10.1669 14.2194 8.31883 23.3244C7.81904 25.7663 7.76092 27.4989 8.03988 32.1037C8.09799 33.1619 8.08637 33.3596 7.93527 33.3596C7.84228 33.3596 7.50522 33.441 7.17977 33.534C6.12208 33.848 5.05276 35.0922 5.05276 36.0224C5.05276 36.3597 4.89004 36.4992 4.48323 36.4992C4.30889 36.4992 4.2624 36.3597 4.20428 35.7782C3.97182 33.4526 3.85559 30.9874 3.84397 28.4176C3.83234 25.2082 3.9602 24.1267 4.61109 21.5569C6.77297 13.1148 13.3748 6.06802 21.8015 3.24236C23.6496 2.62606 26.0207 2.10278 27.8339 1.92836C29.0543 1.80045 32.7155 1.85859 33.9592 2.02139ZM11.9917 34.4061C12.2009 34.5224 12.445 34.7433 12.538 34.8945C12.631 35.0457 13.7584 39.9063 15.0602 45.6972L17.408 56.2324L17.1872 56.6742C17.071 56.9184 16.8385 57.2208 16.6758 57.3371C16.269 57.6278 12.7821 58.3952 12.2823 58.3022C12.0731 58.2673 11.736 58.0929 11.5384 57.9068C11.1316 57.5464 11.3757 58.558 8.13286 43.9878L6.41265 36.2899L6.63349 35.848C6.76134 35.6038 6.98218 35.3131 7.1449 35.1968C7.43548 34.9875 10.6318 34.1968 11.2711 34.1852C11.4687 34.1735 11.7825 34.2782 11.9917 34.4061ZM51.754 34.5805C52.7536 34.8015 53.7067 35.0806 53.8694 35.1968C54.0321 35.3131 54.253 35.6038 54.3808 35.848L54.6017 36.2899L52.8931 43.9297C49.5457 58.9418 49.8827 57.5464 49.4759 57.9068C49.2783 58.0813 48.9413 58.2673 48.732 58.3022C48.2323 58.3952 44.7453 57.6278 44.3385 57.3371C44.1758 57.2208 43.9434 56.9184 43.8271 56.6742L43.6063 56.2324L45.9541 45.6972C47.2559 39.9063 48.3834 35.0457 48.4763 34.8945C48.6972 34.5573 49.3132 34.1735 49.6619 34.1735C49.813 34.1735 50.7544 34.3596 51.754 34.5805ZM5.32009 38.2086C5.35496 38.3946 6.2848 42.5343 7.37736 47.4298C8.46993 52.3253 9.37652 56.4068 9.38815 56.4998C9.41139 56.6742 8.12124 57.058 7.40061 57.0696C6.8892 57.0812 6.2848 56.7905 6.04072 56.4184C5.8315 56.1045 2.26324 40.3482 2.26324 39.7435C2.26324 39.29 2.62355 38.6853 3.00711 38.4876C3.25119 38.3481 4.76219 37.9411 5.1225 37.9062C5.19224 37.8946 5.28522 38.0341 5.32009 38.2086ZM56.8682 38.1272C57.4028 38.2551 57.9491 38.4411 58.0769 38.5341C58.4605 38.79 58.7511 39.3132 58.7511 39.7319C58.7511 40.3249 55.1828 56.1045 54.9736 56.4184C54.7295 56.7905 54.1251 57.0812 53.6137 57.0696C52.8931 57.058 51.6029 56.6742 51.6262 56.4998C51.6378 56.4068 52.5444 52.3253 53.637 47.4298C54.7295 42.5343 55.6594 38.3946 55.6942 38.2086C55.7291 38.0341 55.7872 37.8946 55.8337 37.8946C55.8686 37.8946 56.3451 37.9992 56.8682 38.1272Z" style="fill: rgb(165, 50, 107);"/>
  <path d="M 27.136 0.51 C 20.476 1.37 14.735 4.196 10.144 8.894 C 8.691 10.37 7.912 11.336 6.773 13.068 C 5.146 15.51 3.856 18.441 3.135 21.324 C 2.484 23.917 2.333 25.278 2.345 28.418 C 2.345 30.86 2.612 35.534 2.798 36.557 C 2.856 36.871 2.821 36.929 2.472 37.104 C 1.856 37.395 1.403 37.825 1.124 38.406 C 0.578 39.488 0.578 39.441 2.589 48.383 C 4.658 57.604 4.588 57.407 5.739 58.093 C 6.622 58.628 7.168 58.674 8.644 58.372 C 9.574 58.174 9.876 58.139 9.923 58.256 C 10.027 58.57 10.795 59.291 11.259 59.512 C 11.992 59.872 13.026 59.826 15.118 59.36 C 17.129 58.907 17.396 58.791 18.001 58.128 C 18.582 57.488 18.779 56.977 18.779 56.174 C 18.779 55.314 14.235 34.976 13.898 34.313 C 13.561 33.662 12.794 33.034 12.027 32.813 C 11.457 32.65 11.294 32.65 10.492 32.801 L 9.609 32.964 L 9.504 31.86 C 9.33 29.801 9.4 25.51 9.621 24.324 C 10.76 18.243 14.305 13.173 19.616 9.987 C 23.231 7.824 27.811 6.754 32.041 7.08 C 39.759 7.661 46.419 12.115 49.685 18.882 C 51.394 22.417 51.905 25.348 51.661 30.162 C 51.591 31.627 51.51 32.86 51.487 32.906 C 51.452 32.941 51.033 32.894 50.534 32.801 C 49.72 32.65 49.569 32.65 48.988 32.813 C 48.221 33.034 47.453 33.662 47.116 34.313 C 46.779 34.976 42.235 55.314 42.235 56.174 C 42.235 56.942 42.432 57.465 42.932 58.046 C 43.537 58.721 43.978 58.918 45.884 59.349 C 48.023 59.826 49.023 59.872 49.755 59.512 C 50.22 59.291 50.987 58.57 51.091 58.256 C 51.138 58.139 51.44 58.174 52.37 58.372 C 53.846 58.674 54.393 58.628 55.276 58.093 C 56.415 57.407 56.368 57.581 58.379 48.674 C 60.378 39.802 60.436 39.441 59.902 38.418 C 59.634 37.906 59.111 37.395 58.46 37.022 C 58.286 36.918 58.275 36.79 58.391 35.627 C 58.844 30.906 58.856 25.883 58.402 23.359 C 56.554 12.905 48.837 4.417 38.469 1.417 C 35.947 0.696 34.064 0.428 31.03 0.382 C 29.24 0.359 27.962 0.393 27.136 0.51 Z M 33.959 2.021 C 44.199 3.359 52.672 10.184 55.927 19.696 C 57.31 23.789 57.565 27.301 56.996 34.522 C 56.833 36.604 56.833 36.604 56.345 36.476 C 56.02 36.395 55.962 36.325 55.962 36.034 C 55.962 35.092 54.927 33.86 53.858 33.546 C 53.521 33.441 53.172 33.36 53.091 33.36 C 52.963 33.36 52.94 33.208 52.986 32.685 C 53.149 30.906 53.184 30.22 53.172 28.069 C 53.172 26.58 53.114 25.324 52.998 24.592 C 52.451 21.022 51.033 17.58 48.906 14.696 C 47.872 13.301 45.35 10.812 43.99 9.847 C 40.875 7.638 37.446 6.266 33.727 5.742 C 32.146 5.522 28.996 5.522 27.357 5.754 C 17.896 7.068 10.167 14.219 8.319 23.324 C 7.819 25.766 7.761 27.499 8.04 32.104 C 8.098 33.162 8.086 33.36 7.935 33.36 C 7.842 33.36 7.505 33.441 7.18 33.534 C 6.122 33.848 5.053 35.092 5.053 36.022 C 5.053 36.36 4.89 36.499 4.483 36.499 C 4.309 36.499 4.262 36.36 4.204 35.778 C 3.972 33.453 3.856 30.987 3.844 28.418 C 3.832 25.208 3.96 24.127 4.611 21.557 C 6.773 13.115 13.375 6.068 21.802 3.242 C 23.65 2.626 26.021 2.103 27.834 1.928 C 29.054 1.8 32.715 1.859 33.959 2.021 Z M 11.992 34.406 C 12.201 34.522 12.445 34.743 12.538 34.895 C 12.631 35.046 13.758 39.906 15.06 45.697 L 17.408 56.232 L 17.187 56.674 C 17.071 56.918 16.838 57.221 16.676 57.337 C 16.269 57.628 12.782 58.395 12.282 58.302 C 12.073 58.267 11.736 58.093 11.538 57.907 C 11.132 57.546 11.376 58.558 8.133 43.988 L 6.413 36.29 L 6.633 35.848 C 6.761 35.604 6.982 35.313 7.145 35.197 C 7.435 34.987 10.632 34.197 11.271 34.185 C 11.469 34.174 11.783 34.278 11.992 34.406 Z M 51.754 34.581 C 52.754 34.801 53.707 35.081 53.869 35.197 C 54.032 35.313 54.253 35.604 54.381 35.848 L 54.602 36.29 L 52.893 43.93 C 49.546 58.942 49.883 57.546 49.476 57.907 C 49.278 58.081 48.941 58.267 48.732 58.302 C 48.232 58.395 44.745 57.628 44.339 57.337 C 44.176 57.221 43.943 56.918 43.827 56.674 L 43.606 56.232 L 45.954 45.697 C 47.256 39.906 48.383 35.046 48.476 34.895 C 48.697 34.557 49.313 34.174 49.662 34.174 C 49.813 34.174 50.754 34.36 51.754 34.581 Z M 5.32 38.209 C 5.355 38.395 6.285 42.534 7.377 47.43 C 8.47 52.325 9.377 56.407 9.388 56.5 C 9.411 56.674 8.121 57.058 7.401 57.07 C 6.889 57.081 6.285 56.791 6.041 56.418 C 5.832 56.104 2.263 40.348 2.263 39.743 C 2.263 39.29 2.624 38.685 3.007 38.488 C 3.251 38.348 4.762 37.941 5.122 37.906 C 5.192 37.895 5.285 38.034 5.32 38.209 Z M 56.868 38.127 C 57.403 38.255 57.949 38.441 58.077 38.534 C 58.46 38.79 58.751 39.313 58.751 39.732 C 58.751 40.325 55.183 56.104 54.974 56.418 C 54.729 56.791 54.125 57.081 53.614 57.07 C 52.893 57.058 51.603 56.674 51.626 56.5 C 51.638 56.407 52.544 52.325 53.637 47.43 C 54.729 42.534 55.659 38.395 55.694 38.209 C 55.729 38.034 55.787 37.895 55.834 37.895 C 55.869 37.895 56.345 37.999 56.868 38.127 Z" stroke="#8F8F8F" stroke-width="0.25" mask="url(#path-1-outside-1_309_924)" style="fill: currentcolor; transform-origin: 30.502px 30.063px 0px;"/>
</svg>