<?xml version="1.0" encoding="utf-8"?>
<svg enable-background="new 0 0 512 512" height="512px" id="Layer_3" version="1.1" viewBox="0 0 512 512" width="512px" xmlns="http://www.w3.org/2000/svg">
  <g>
    <path d="M 459.668 148.439 C 439.109 120.775 409.026 101.878 370.326 91.75 C 369.268 79.506 362.616 63.632 342.057 59.854 C 321.347 56.074 308.951 69.075 303.66 81.773 C 284.612 81.32 259.065 83.285 230.645 92.053 C 198.142 102.181 169.268 123.193 149.464 151.16 C 127.394 182.302 116.51 222.06 117.871 266.051 L 15.831 346.776 C 12.806 349.194 11.597 353.276 12.806 357.055 C 14.168 360.685 17.645 363.103 21.574 362.951 C 21.574 362.951 21.574 362.951 21.574 362.951 C 22.028 362.951 46.82 363.253 103.207 395.755 C 109.858 399.535 116.51 403.767 123.464 408.302 C 149.616 425.082 178.792 443.828 215.98 443.828 C 257.552 443.828 309.253 420.397 378.036 344.66 C 381.211 344.811 384.385 344.811 387.56 344.811 C 412.502 344.811 435.935 342.393 457.25 337.554 C 473.122 333.927 485.065 321.228 487.786 305.053 C 494.135 268.922 498.519 200.442 459.668 148.439 Z M 338.883 77.692 C 346.138 79.052 349.616 83.285 351.278 87.518 C 346.895 86.762 342.51 86.157 338.127 85.552 C 336.312 85.098 331.324 84.041 323.765 83.133 C 326.486 79.506 331.173 76.332 338.883 77.692 Z M 236.086 109.437 C 282.95 94.924 321.649 100.821 331.626 102.786 C 335.103 107.019 344.324 119.869 350.221 146.172 C 357.326 177.616 360.954 233.549 338.127 323.496 C 249.087 312.309 160.197 275.121 136.011 264.388 C 133.895 173.988 185.898 125.009 236.086 109.437 Z M 223.539 425.536 C 188.013 428.256 160.349 410.42 133.441 393.186 C 126.487 388.801 119.382 384.266 112.429 380.186 C 80.38 361.742 57.704 352.974 42.889 348.74 L 128.452 281.016 C 158.082 294.169 257.401 335.438 354.604 343.45 C 305.02 395.755 262.088 422.664 223.539 425.536 Z M 470.249 302.181 C 468.739 311.1 462.238 318.053 453.621 320.018 C 429.737 325.46 402.827 327.577 373.802 326.519 C 368.059 326.368 362.314 325.915 356.419 325.46 C 387.711 200.139 370.175 135.591 355.51 106.868 C 395.268 115.181 425.353 132.717 445.156 159.172 C 479.925 205.885 475.844 268.771 470.249 302.181 Z" style="fill: color(srgb-linear 0.27 0.27 0.27);"/>
  </g>
</svg>